<?xml version="1.0" encoding="utf-8"?>
<!-- Generator: Adobe Illustrator 23.0.5, SVG Export Plug-In . SVG Version: 6.00 Build 0)  -->
<svg version="1.1" id="Layer_1" xmlns="http://www.w3.org/2000/svg" xmlns:xlink="http://www.w3.org/1999/xlink" x="0px" y="0px"
	 viewBox="0 0 82.1 82.1" style="enable-background:new 0 0 82.1 82.1;" xml:space="preserve">
<style type="text/css">
	.st0{fill:#FFFFFF;}
	.st1{fill:none;stroke:#000000;stroke-width:0.75;stroke-miterlimit:10;}
	.st2{fill:url(#SVGID_1_);}
</style>
<circle class="st0" cx="41.3" cy="41.2" r="41.1"/>
<path class="st1" d="M42.8,19l6.1,12.5c0.2,0.5,0.7,0.9,1.3,0.9l13.7,2c1.4,0.2,2,1.9,0.9,2.9L55,47c-0.4,0.4-0.6,1-0.5,1.5
	l2.3,13.7c0.2,1.4-1.2,2.5-2.5,1.8l-12.3-6.5c-0.5-0.3-1.1-0.3-1.6,0l-12.3,6.5c-1.3,0.7-2.7-0.4-2.5-1.8l2.3-13.7
	c0.1-0.6-0.1-1.1-0.5-1.5l-9.9-9.7c-1-1-0.5-2.7,0.9-2.9l13.7-2c0.6-0.1,1-0.4,1.3-0.9L39.7,19C40.4,17.7,42.2,17.7,42.8,19z"/>
<linearGradient id="SVGID_1_" gradientUnits="userSpaceOnUse" x1="19.7957" y1="41.1645" x2="62.7447" y2="41.1645">
	<stop  offset="0" style="stop-color:#2DFF15"/>
	<stop  offset="0.7479" style="stop-color:#F3E600"/>
</linearGradient>
<path class="st2" d="M42.6,21.5l5.5,11.1c0.2,0.4,0.7,0.8,1.1,0.8l12.2,1.8c1.2,0.2,1.7,1.7,0.8,2.6l-8.8,8.6
	c-0.4,0.3-0.5,0.9-0.4,1.3l2.1,12.2c0.2,1.2-1.1,2.2-2.2,1.6L42,55.7c-0.4-0.2-1-0.2-1.4,0l-10.9,5.7c-1.1,0.6-2.4-0.4-2.2-1.6
	l2.1-12.2c0.1-0.5-0.1-1-0.4-1.3l-8.8-8.6c-0.9-0.9-0.4-2.4,0.8-2.6l12.2-1.8c0.5-0.1,0.9-0.4,1.1-0.8l5.5-11.1
	C40.5,20.4,42.1,20.4,42.6,21.5z"/>
</svg>
